<svg width="79" height="79" viewBox="0 0 79 79" fill="none" xmlns="http://www.w3.org/2000/svg">
<rect width="79" height="79" rx="13" fill="#09090B"/>
<rect x="3" y="3" width="73" height="73" rx="10" fill="#FAFAFA"/>
<rect x="6" y="6" width="67" height="67" rx="8" fill="#09090B"/>
<path d="M39.1584 18C41.937 18 44.6884 18.5473 47.2554 19.6106C49.8225 20.6739 52.155 22.2324 54.1197 24.1972C56.0845 26.1619 57.643 28.4944 58.7063 31.0615C59.7696 33.6286 60.3169 36.3799 60.3169 39.1585L49.7377 39.1585C49.7377 37.7692 49.464 36.3935 48.9324 35.11C48.4007 33.8265 47.6215 32.6602 46.6391 31.6778C45.6567 30.6955 44.4905 29.9162 43.2069 29.3845C41.9234 28.8529 40.5477 28.5792 39.1584 28.5792L39.1584 18Z" fill="#FAFAFA"/>
<path d="M60.3169 40.1585C60.3169 42.9371 59.7696 45.6884 58.7063 48.2555C57.643 50.8226 56.0845 53.1551 54.1197 55.1198C52.155 57.0846 49.8225 58.6431 47.2554 59.7064C44.6884 60.7697 41.937 61.317 39.1584 61.317L39.1584 50.7377C40.5477 50.7377 41.9234 50.4641 43.2069 49.9324C44.4905 49.4008 45.6567 48.6215 46.6391 47.6392C47.6215 46.6568 48.4007 45.4905 48.9324 44.207C49.464 42.9235 49.7377 41.5478 49.7377 40.1585H60.3169Z" fill="#FAFAFA"/>
<rect x="18.1818" y="51" width="20.303" height="10" fill="#FAFAFA"/>
<rect x="18.1818" y="28" width="10.1515" height="11" fill="#FAFAFA"/>
<rect x="18.1818" y="40" width="10.1515" height="11" fill="#FAFAFA"/>
<rect x="18.1818" y="18" width="20.303" height="10" fill="#FAFAFA"/>
<rect x="37.4697" y="6" width="3.04545" height="67" fill="#FAFAFA"/>
<rect x="6" y="38" width="31.4697" height="3" fill="#FAFAFA"/>
<rect x="49.7" y="38" width="23.3" height="3" fill="#FAFAFA"/>
</svg>
